<?xml version="1.0" encoding="utf-8"?>
<!-- Generator: Adobe Illustrator 24.1.1, SVG Export Plug-In . SVG Version: 6.00 Build 0)  -->
<svg version="1.1" id="Layer_1" xmlns="http://www.w3.org/2000/svg" xmlns:xlink="http://www.w3.org/1999/xlink" x="0px" y="0px"
	 viewBox="0 0 618.4 155.7" style="enable-background:new 0 0 618.4 155.7;" xml:space="preserve">
<style type="text/css">
	.st0{fill:url(#SVGID_1_);}
	.st1{fill:#333333;}
</style>
<g>
	<linearGradient id="SVGID_1_" gradientUnits="userSpaceOnUse" x1="418.5866" y1="268.3585" x2="205.2132" y2="-101.215">
		<stop  offset="6.312780e-02" style="stop-color:#CEB171"/>
		<stop  offset="0.2821" style="stop-color:#FBF7C9"/>
		<stop  offset="0.4341" style="stop-color:#FFE3A3"/>
		<stop  offset="0.7326" style="stop-color:#B19453"/>
		<stop  offset="1" style="stop-color:#F3D797"/>
	</linearGradient>
	<path class="st0" d="M29.9,0L0,68.9h12.9l5.4-13h22l5.1,13h15.1L30.6,0H29.9z M22.9,44.9l6.7-16.1l6.4,16.1H22.9z M83.2,47.8H92
		l14,21.1h15.2l-15.4-24c3.5-2,6.2-4.8,7.9-8.4c1.7-3.6,2.6-7.4,2.6-11.5c0-6.9-2.3-12.4-6.8-16.3c-4.5-4-10.9-6-19.1-6H70.2v66.3
		h13.1V47.8z M83.2,15.2h9.4c4,0,6.6,1.1,8,3.3c1.4,2.2,2.1,4.5,2.1,6.9c0,2.4-0.8,4.6-2.4,6.7c-1.6,2.1-4.2,3.1-7.7,3.1h-9.3V15.2z
		 M245.1,50.6c0-3.4-3.2-6.4-9.6-8.9c-3.8-1.5-6.9-2.9-9.5-4.3c-2.5-1.4-4.7-3.4-6.5-5.9c-1.8-2.6-2.7-5.8-2.7-9.7
		c0-5.7,1.9-10.3,5.6-13.8c3.8-3.5,8.8-5.4,15-5.7c4.9,0,9,0.6,12.3,1.7c3.3,1.1,6.5,2.7,9.6,4.7l-5,10c-5.8-3.2-10.8-4.8-15-4.8
		c-2.9,0-5.1,0.6-6.7,1.7c-1.6,1.1-2.4,2.9-2.4,5.1c0,2.1,1.2,3.9,3.5,5.5c2.3,1.6,5.4,3.1,9.2,4.5c3.1,1.1,5.8,2.4,8,3.9
		c2.2,1.5,4.1,3.5,5.5,6.1c1.5,2.6,2.2,5.9,2.2,9.8c0,3.4-0.9,6.6-2.7,9.5c-1.8,2.9-4.4,5.2-7.8,6.9c-3.4,1.7-7.5,2.6-12.2,2.6
		c-4,0-7.9-0.6-11.8-1.8c-3.9-1.2-7.5-3-10.9-5.4l5.8-10.2c2.3,1.7,4.9,3.1,7.8,4.1c2.9,1.1,5.6,1.6,7.9,1.6c2.8,0,5.2-0.6,7.2-1.8
		C244.1,55.2,245.1,53.3,245.1,50.6z M113.6,120.7c1.7-3.6,2.6-7.4,2.6-11.5c0-6.9-2.3-12.4-6.8-16.3c-4.5-4-10.9-6-19.1-6H70.2
		v66.3h13.1v-21.1H92l14,21.1h15.2l-15.4-24C109.3,127.1,111.9,124.3,113.6,120.7z M101.4,116.2c-1.6,2.1-4.2,3.1-7.7,3.1h-9.3v-20
		h9.4c4,0,6.6,1.1,8,3.3c1.4,2.2,2.1,4.5,2.1,6.9C103.9,111.9,103.1,114.1,101.4,116.2z M229.9,104.8c0,2.1,1.2,3.9,3.5,5.5
		c2.3,1.6,5.4,3.1,9.2,4.5c3.1,1.1,5.8,2.4,8,3.9c2.2,1.5,4.1,3.5,5.5,6.1c1.5,2.6,2.2,5.9,2.2,9.8c0,3.4-0.9,6.6-2.7,9.5
		c-1.8,2.9-4.4,5.2-7.8,6.9c-3.4,1.7-7.5,2.6-12.2,2.6c-4,0-7.9-0.6-11.8-1.8c-3.9-1.2-7.5-3-10.9-5.4l5.8-10.2
		c2.3,1.7,4.9,3.1,7.8,4.1c2.9,1.1,5.6,1.6,7.9,1.6c2.8,0,5.2-0.6,7.2-1.8c2-1.2,3.1-3.1,3.1-5.7c0-3.4-3.2-6.4-9.6-8.9
		c-3.8-1.5-6.9-2.9-9.5-4.3c-2.5-1.4-4.7-3.4-6.5-5.9c-1.8-2.6-2.7-5.8-2.7-9.7c0-5.7,1.9-10.3,5.6-13.8c3.8-3.5,8.8-5.4,15-5.7
		c4.9,0,9,0.6,12.3,1.7c3.3,1.1,6.5,2.7,9.6,4.7l-5,10c-5.8-3.2-10.8-4.8-15-4.8c-2.9,0-5.1,0.6-6.7,1.7
		C230.7,100.8,229.9,102.5,229.9,104.8z M272.7,86.7h13.1V153h-13.1V86.7z M343.6,91.6c-5.5-3.3-12.4-4.9-20.9-4.9h-19.8V153h23.1
		c6.1,0,11.6-1.3,16.7-3.9c5.1-2.6,9.1-6.3,12.1-11.2c3-4.9,4.5-10.5,4.5-16.8c0-5.9-1.2-11.5-3.7-16.7
		C353,99.1,349.1,94.9,343.6,91.6z M340.6,135.2c-4,3.5-9.3,5.2-16.1,5.2h-7.7V99.2h10.6c2.6,0,5.3,0.6,8.2,1.8
		c2.9,1.2,5.5,3.4,7.7,6.5c2.2,3.1,3.3,7.3,3.3,12.6C346.5,126.7,344.5,131.7,340.6,135.2z M385.4,140.4h33.4V153h-46.5V86.7h45.2
		v12.6h-32.2v14.1h28.5v12.6h-28.5V140.4z M478.9,86.7H492v69h-0.4l-46.4-41.9l0.3,39.2h-13.2V84.1h0.5l46.3,42.5L478.9,86.7z
		 M553.5,135.8l5.4,11.7c-1.7,1.4-4.4,2.8-8,4.1c-3.7,1.4-7.7,2.1-12,2.1c-6.9,0-12.9-1.5-18-4.5c-5.1-3-9-7-11.7-12.1
		c-2.7-5.1-4.1-10.6-4.1-16.7c0-6.7,1.4-12.6,4.1-17.8c2.7-5.2,6.5-9.3,11.3-12.2c4.9-2.9,10.5-4.4,16.8-4.4c4,0,7.7,0.5,11.2,1.6
		c3.4,1.1,6.4,2.4,9,4.1l-5.1,12.3c-4.7-3.6-9.6-5.4-14.6-5.4c-3.4,0-6.5,0.9-9.5,2.8c-2.9,1.9-5.3,4.4-7,7.6
		c-1.7,3.2-2.6,6.8-2.6,10.7c0,4.3,0.8,8,2.4,11.2c1.6,3.2,3.9,5.7,6.9,7.5c3,1.8,6.5,2.7,10.5,2.7c3.2,0,6.2-0.5,8.7-1.6
		C549.9,138.5,552,137.2,553.5,135.8z M618.4,140.4V153h-46.5V86.7h45.2v12.6H585v14.1h28.5v12.6H585v14.3H618.4z"/>
	<rect x="138.3" y="112.6" class="st1" width="50.8" height="14.4"/>
	<rect x="138.3" y="28.2" class="st1" width="50.8" height="14.4"/>
	<rect x="138.3" y="1.9" class="st1" width="58" height="14.4"/>
	<rect x="138.3" y="138.9" class="st1" width="58" height="14.4"/>
	<rect x="138.3" y="54.6" class="st1" width="58" height="14.4"/>
	<rect x="138.3" y="86.3" class="st1" width="58" height="14.4"/>
</g>
</svg>
